<?xml version="1.0" encoding="UTF-8" standalone="yes"?>
<svg width="735" height="181" color-interpolation="linearRGB">
 <g>
  <path style="fill:#010101"
        d="M118.02 33.02v106.93h13.96v-106.93h-13.96v0z"
  />
  <path style="fill:#010101"
        d="M181.02 33.02c0 35.54 0 71.39 0 106.93h13.95v-106.93h-13.95v0z"
  />
  <path style="fill:#010101"
        d="M283.53 28.18l-50.43 111.77h14.1l36.32 -81.58l35.28 81.58h14.08l-49.36 -111.77v0z"
  />
  <path style="fill:#010101"
        d="M371.02 33.02v106.93h13.96v-106.93h-13.96v0z"
  />
  <path style="fill:#010101"
        d="M435.02 33.02v106.93h13.93v-44.5l4.49 -5.37l39.48 49.88h17.53l-47.73 -58.93l47 -48h-16.98l-43.8 46.3v-46.3h-13.93v0z"
  />
  <path style="fill:#010101"
        d="M611.01 33.02v64.29c0 10.23 -2.13 18.19 -6.28 23.88c-4.14 5.68 -10.55 7.88 -19.22 7.88c-9.08 0 -15.39 -3.48 -19.21 -9.71c-3.84 -6.24 -5.33 -12.53 -5.33 -20.92v-65.42h-13.92v68.65c0 6.48 1.57 12.99 4.27 19.15c2.69 6.17 6.99 11.09 12.73 15.12c5.71 4.03 12.96 5.94 21.46 6.04c5.62 0 10.78 -0.83 15.48 -2.79c4.7 -1.98 8.75 -4.8 12.19 -8.48c3.41 -3.67 6.03 -8.03 7.88 -13.1c1.82 -5.04 2.93 -10.58 2.93 -16.61v-67.97h-12.98v0z"
  />
 </g>
 <g>
  <radialGradient id="gradient0" gradientUnits="userSpaceOnUse" cx="0" cy="0" r="200" gradientTransform="matrix(0.1294,-0.2357,-0.2758,-0.3164,597.2067,112.1814)">
   <stop offset="0" stop-color="#f6a407"/>
   <stop offset="1" stop-color="#ffe56d"/>
  </radialGradient>
  <path style="fill:url(#gradient0)"
        d="M593.98 88.69c-3 15.73 0.81 27.55 8.95 36.36c0.14 -2.41 1.1 -4.13 1.89 -5.55c0.86 15.17 12.33 15.6 17.07 17.37c0.19 -1.79 -1.48 -2.74 -0.14 -6.97c1.54 3.3 2.97 5.17 4.79 7.94c2.76 0.7 5.75 2.51 8.73 2.89c3.68 0.46 8.57 0.9 12.63 1.24c-0.04 -1.87 0.5 -2.62 1.19 -3.79c0.48 1.44 1.13 2.77 1.95 3.99c4.2 -0.37 7.87 0.96 9.85 2.18c-2.2 -8.98 -8.63 -18.15 -14.44 -24.05c-3.41 -1.01 -5.89 0.69 -10.51 2.64c0.93 -2.63 2.85 -4.78 6.61 -6.03c-4.62 -3.81 -9.67 -7.14 -14.69 -10.28c-1.95 -1.22 -7.79 -3.51 -10.37 -5.38c-2.55 -0.04 -4.89 0.07 -7.04 0.31c1.47 -1.02 2.79 -2.21 4.4 -3.09c-6.63 -7.39 -11.73 -10.46 -19.63 -12.64c-7.16 -10.96 -10.43 -26.35 -8.67 -27.35l-4.14 2.35c0 0 3.68 17.09 11.55 27.84v0z"
  />
 </g>
 <g>
  <radialGradient id="gradient1" gradientUnits="userSpaceOnUse" cx="0" cy="0" r="200" gradientTransform="matrix(0.6662,-0.0701,0.0251,0.2389,281.9321,85.2491)">
   <stop offset="0" stop-color="#f43d05"/>
   <stop offset="1" stop-color="#ffaa00"/>
  </radialGradient>
  <path style="fill:url(#gradient1)"
        d="M325.6 113c-8.4 -17.4 -20.6 -26.09 -34.81 -28.77c1.59 2.43 1.9 4.8 2.16 6.74c-11.74 -14.07 -23.16 -6.24 -29.03 -4.55c1.1 1.87 3.4 1.59 5.15 6.65c-3.87 -2.09 -6.6 -2.87 -10.35 -4.24c-3.18 1.3 -7.38 1.7 -10.54 3.48c-3.9 2.19 -8.96 5.28 -13.13 7.88c1.39 1.78 1.39 2.9 1.56 4.53c-1.5 -1.04 -3.09 -1.86 -4.76 -2.46c-3.8 3.38 -8.32 4.72 -11.11 4.97c8.6 7.11 21.42 11.36 31.28 12.9c4.03 -1.47 5.2 -4.9 8.28 -10.12c0.98 3.22 0.67 6.68 -2.06 10.6c7.22 0.37 14.5 -0.03 21.62 -0.6c2.77 -0.22 10.06 -2.2 13.91 -2.24c2.5 -1.79 4.68 -3.58 6.59 -5.36c-0.68 2.05 -1.11 4.15 -2.03 6.16c11.73 2.39 18.88 1.69 28.1 -1.87c14.82 5.46 29.05 18.01 28.06 20.25l2.32 -5.26c0 0 -15.86 -13.9 -31.21 -18.65v0z"
  />
 </g>
 <g>
  <radialGradient id="gradient2" gradientUnits="userSpaceOnUse" cx="0" cy="0" r="200" gradientTransform="matrix(0.8308,-0.3374,0.1336,0.2809,158.4185,78.0486)">
   <stop offset="0" stop-color="#32962b"/>
   <stop offset="1" stop-color="#a9ff00"/>
  </radialGradient>
  <path style="fill:url(#gradient2)"
        d="M113.7 101.53c13.95 13.37 28.42 17.25 42.67 14.8c-2.34 -1.72 -3.45 -3.83 -4.38 -5.56c15.92 9.08 23.88 -2.23 28.79 -5.87c-1.69 -1.37 -3.75 -0.3 -7.15 -4.43c4.35 0.6 7.18 0.38 11.19 0.36c2.52 -2.33 6.32 -4.17 8.66 -6.94c2.89 -3.42 6.55 -8.08 9.55 -11.97c-1.93 -1.18 -2.32 -2.23 -3.05 -3.7c1.77 0.45 3.54 0.67 5.32 0.64c2.38 -4.5 6.14 -7.33 8.67 -8.53c-10.54 -3.66 -24.04 -3.17 -33.82 -1.16c-3.26 2.79 -3.16 6.41 -4.22 12.38c-2.05 -2.67 -2.97 -6.02 -1.76 -10.65c-6.89 2.17 -13.58 5.09 -20.04 8.12c-2.51 1.17 -8.66 5.57 -12.25 6.96c-1.71 2.55 -3.13 4.99 -4.3 7.33c-0.07 -2.16 -0.41 -4.28 -0.24 -6.49c-11.83 1.85 -18.29 5.01 -25.67 11.57c-15.8 0.05 -33.51 -6.73 -33.37 -9.17l-0.33 5.73c0 0 19.72 7.48 35.76 6.58v0z"
  />
 </g>
</svg>
