<?xml version="1.0" encoding="UTF-8" standalone="yes"?>
<svg width="372" height="121" color-interpolation="linearRGB" xmlns:svg="http://www.w3.org/2000/svg" xmlns:xlink="http://www.w3.org/1999/xlink" xmlns="http://www.w3.org/2000/svg">
 <g visibility="hidden">
  <path style="fill:none; stroke:#e8e8e8; stroke-opacity:0; stroke-width:0.2"
        d="M90.85 597.23c6.97 -6.68 14.21 -8.62 21.33 -7.4c-1.17 0.86 -1.72 1.91 -2.19 2.78c7.96 -4.54 11.94 1.11 14.39 2.93c-0.84 0.68 -1.87 0.15 -3.57 2.21c2.17 -0.3 3.59 -0.19 5.59 -0.18c1.26 1.16 3.16 2.08 4.33 3.47c1.44 1.71 3.27 4.04 4.77 5.98c-0.96 0.59 -1.16 1.11 -1.52 1.85c0.88 -0.22 1.77 -0.33 2.66 -0.32c1.19 2.25 3.07 3.66 4.33 4.26c-5.27 1.83 -12.02 1.58 -16.91 0.58c-1.63 -1.39 -1.58 -3.2 -2.11 -6.19c-1.02 1.33 -1.48 3.01 -0.88 5.32c-3.44 -1.08 -6.79 -2.54 -10.02 -4.06c-1.25 -0.58 -4.33 -2.78 -6.12 -3.48c-0.85 -1.27 -1.95 -2.85 -2.54 -4.02c-0.54 0.81 -0.42 2.54 0.15 3.81c-5.91 -0.92 -9.03 -2.71 -12.72 -5.99c-7.9 -0.02 -16.44 3.52 -16.37 4.74l-0.16 -2.86c0 0 9.54 -3.89 17.57 -3.44v0z"
        transform="matrix(1.5854,0.6056,1.7959,-3.675,-1127.1127,2182.58)"
  />
  <path style="fill:#efefef"
        d="M-86 86v39h1555v-39h-1555z"
  />
  <path style="fill:#a2a2a2"
        d="M-86 86v15h1555v-15h-1555z"
  />
 </g>
 <g>
  <path style="fill:none; stroke:#e8e8e8; stroke-width:0.2"
        d="M90.85 597.23c6.97 -6.68 14.21 -8.62 21.33 -7.4c-1.17 0.86 -1.72 1.91 -2.19 2.78c7.96 -4.54 11.94 1.11 14.39 2.93c-0.84 0.68 -1.87 0.15 -3.57 2.21c2.17 -0.3 3.59 -0.19 5.59 -0.18c1.26 1.16 3.16 2.08 4.33 3.47c1.44 1.71 3.27 4.04 4.77 5.98c-0.96 0.59 -1.16 1.11 -1.52 1.85c0.88 -0.22 1.77 -0.33 2.66 -0.32c1.19 2.25 3.07 3.66 4.33 4.26c-5.27 1.83 -12.02 1.58 -16.91 0.58c-1.63 -1.39 -1.58 -3.2 -2.11 -6.19c-1.02 1.33 -1.48 3.01 -0.88 5.32c-3.44 -1.08 -6.79 -2.54 -10.02 -4.06c-1.25 -0.58 -4.33 -2.78 -6.12 -3.48c-0.85 -1.27 -1.95 -2.85 -2.54 -4.02c-0.54 0.81 -0.42 2.54 0.15 3.81c-5.91 -0.92 -9.03 -2.71 -12.72 -5.99c-7.9 -0.02 -16.44 3.52 -16.37 4.74l-0.16 -2.86c0 0 9.54 -3.89 17.57 -3.44v0z"
        transform="matrix(1.5854,0.6056,1.7959,-3.675,-1127.1127,2182.58)"
  />
  <path style="fill:#a2a2a2"
        d="M-86 86v39h1555v-39h-1555z"
  />
 </g>
 <g visibility="hidden">
  <path style="fill:none; stroke:#010101; stroke-width:0.2"
        d="M90.85 597.23c6.97 -6.68 14.21 -8.62 21.33 -7.4c-1.17 0.86 -1.72 1.91 -2.19 2.78c7.96 -4.54 11.94 1.11 14.39 2.93c-0.84 0.68 -1.87 0.15 -3.57 2.21c2.17 -0.3 3.59 -0.19 5.59 -0.18c1.26 1.16 3.16 2.08 4.33 3.47c1.44 1.71 3.27 4.04 4.77 5.98c-0.96 0.59 -1.16 1.11 -1.52 1.85c0.88 -0.22 1.77 -0.33 2.66 -0.32c1.19 2.25 3.07 3.66 4.33 4.26c-5.27 1.83 -12.02 1.58 -16.91 0.58c-1.63 -1.39 -1.58 -3.2 -2.11 -6.19c-1.02 1.33 -1.48 3.01 -0.88 5.32c-3.44 -1.08 -6.79 -2.54 -10.02 -4.06c-1.25 -0.58 -4.33 -2.78 -6.12 -3.48c-0.85 -1.27 -1.95 -2.85 -2.54 -4.02c-0.54 0.81 -0.42 2.54 0.15 3.81c-5.91 -0.92 -9.03 -2.71 -12.72 -5.99c-7.9 -0.02 -16.44 3.52 -16.37 4.74l-0.16 -2.86c0 0 9.54 -3.89 17.57 -3.44v0z"
        transform="matrix(1.5854,0.6056,1.7959,-3.675,-1127.1127,2182.58)"
  />
 </g>
</svg>
